<svg xmlns="http://www.w3.org/2000/svg" width="344" height="240" viewBox="0 0 344 240" fill="none">
<g clip-path="url(#clip0_18562_12280)">
<rect width="344" height="240" rx="16" fill="#E86453"/>
<g opacity="0.2">
<path d="M-214.292 511.206L1291.64 237.488" stroke="#E2EEDC" stroke-linecap="round" stroke-linejoin="round"/>
<path d="M-216.799 496.55L1289.14 222.832" stroke="#E2EEDC" stroke-linecap="round" stroke-linejoin="round"/>
<path d="M-219.306 481.894L1286.63 208.176" stroke="#E2EEDC" stroke-linecap="round" stroke-linejoin="round"/>
<path d="M-221.812 467.238L1284.12 193.52" stroke="#E2EEDC" stroke-linecap="round" stroke-linejoin="round"/>
<path d="M-224.319 452.583L1281.62 178.865" stroke="#E2EEDC" stroke-linecap="round" stroke-linejoin="round"/>
<path d="M-226.826 437.927L1279.11 164.209" stroke="#E2EEDC" stroke-linecap="round" stroke-linejoin="round"/>
<path d="M-229.335 423.271L1276.6 149.553" stroke="#E2EEDC" stroke-linecap="round" stroke-linejoin="round"/>
<path d="M-231.841 408.615L1274.09 134.897" stroke="#E2EEDC" stroke-linecap="round" stroke-linejoin="round"/>
<path d="M-234.348 393.959L1271.59 120.241" stroke="#E2EEDC" stroke-linecap="round" stroke-linejoin="round"/>
<path d="M-236.811 379.559L1269.12 105.841" stroke="#E2EEDC" stroke-linecap="round" stroke-linejoin="round"/>
<path d="M-284.682 99.7031L1221.25 -174.015" stroke="#E2EEDC" stroke-linecap="round" stroke-linejoin="round"/>
<path d="M-239.317 364.903L1266.62 91.1853" stroke="#E2EEDC" stroke-linecap="round" stroke-linejoin="round"/>
<path d="M-287.189 85.0474L1218.75 -188.671" stroke="#E2EEDC" stroke-linecap="round" stroke-linejoin="round"/>
<path d="M-241.824 350.248L1264.11 76.5296" stroke="#E2EEDC" stroke-linecap="round" stroke-linejoin="round"/>
<path d="M-289.696 70.3916L1216.24 -203.326" stroke="#E2EEDC" stroke-linecap="round" stroke-linejoin="round"/>
<path d="M-244.332 335.592L1261.6 61.8738" stroke="#E2EEDC" stroke-linecap="round" stroke-linejoin="round"/>
<path d="M-292.203 55.7358L1213.73 -217.982" stroke="#E2EEDC" stroke-linecap="round" stroke-linejoin="round"/>
<path d="M-246.839 320.936L1259.1 47.218" stroke="#E2EEDC" stroke-linecap="round" stroke-linejoin="round"/>
<path d="M-294.71 41.0801L1211.22 -232.638" stroke="#E2EEDC" stroke-linecap="round" stroke-linejoin="round"/>
<path d="M-249.346 306.28L1256.59 32.5623" stroke="#E2EEDC" stroke-linecap="round" stroke-linejoin="round"/>
<path d="M-297.217 26.4241L1208.72 -247.294" stroke="#E2EEDC" stroke-linecap="round" stroke-linejoin="round"/>
<path d="M-251.853 291.625L1254.08 17.9065" stroke="#E2EEDC" stroke-linecap="round" stroke-linejoin="round"/>
<path d="M-299.724 11.7683L1206.21 -261.95" stroke="#E2EEDC" stroke-linecap="round" stroke-linejoin="round"/>
<path d="M-254.36 276.969L1251.57 3.25076" stroke="#E2EEDC" stroke-linecap="round" stroke-linejoin="round"/>
<path d="M-256.867 262.313L1249.07 -11.405" stroke="#E2EEDC" stroke-linecap="round" stroke-linejoin="round"/>
<path d="M-259.373 247.657L1246.56 -26.0608" stroke="#E2EEDC" stroke-linecap="round" stroke-linejoin="round"/>
<path d="M-261.88 233.001L1244.05 -40.717" stroke="#E2EEDC" stroke-linecap="round" stroke-linejoin="round"/>
<path d="M-264.388 218.346L1241.55 -55.3723" stroke="#E2EEDC" stroke-linecap="round" stroke-linejoin="round"/>
<path d="M-266.895 203.69L1239.04 -70.0283" stroke="#E2EEDC" stroke-linecap="round" stroke-linejoin="round"/>
<path d="M-269.402 189.034L1236.53 -84.6843" stroke="#E2EEDC" stroke-linecap="round" stroke-linejoin="round"/>
<path d="M-271.908 174.378L1234.03 -99.3401" stroke="#E2EEDC" stroke-linecap="round" stroke-linejoin="round"/>
<path d="M-274.416 159.722L1231.52 -113.996" stroke="#E2EEDC" stroke-linecap="round" stroke-linejoin="round"/>
<path d="M-276.923 145.066L1229.01 -128.652" stroke="#E2EEDC" stroke-linecap="round" stroke-linejoin="round"/>
<path d="M-279.43 130.411L1226.5 -143.307" stroke="#E2EEDC" stroke-linecap="round" stroke-linejoin="round"/>
<path d="M-282.056 115.057L1223.88 -158.661" stroke="#E2EEDC" stroke-linecap="round" stroke-linejoin="round"/>
<path d="M-94.2666 481.912L1294.46 229.497" stroke="#E2EEDC" stroke-linecap="round" stroke-linejoin="round"/>
<path d="M-96.7725 467.256L1291.96 214.841" stroke="#E2EEDC" stroke-linecap="round" stroke-linejoin="round"/>
<path d="M-99.2803 452.6L1289.45 200.185" stroke="#E2EEDC" stroke-linecap="round" stroke-linejoin="round"/>
<path d="M-101.787 437.944L1286.94 185.529" stroke="#E2EEDC" stroke-linecap="round" stroke-linejoin="round"/>
<path d="M-104.294 423.288L1284.44 170.873" stroke="#E2EEDC" stroke-linecap="round" stroke-linejoin="round"/>
<path d="M-106.801 408.632L1281.93 156.217" stroke="#E2EEDC" stroke-linecap="round" stroke-linejoin="round"/>
<path d="M-109.308 393.977L1279.42 141.562" stroke="#E2EEDC" stroke-linecap="round" stroke-linejoin="round"/>
<path d="M-111.815 379.321L1276.92 126.906" stroke="#E2EEDC" stroke-linecap="round" stroke-linejoin="round"/>
<path d="M-114.322 364.665L1274.41 112.25" stroke="#E2EEDC" stroke-linecap="round" stroke-linejoin="round"/>
<path d="M-116.785 350.265L1271.95 97.8501" stroke="#E2EEDC" stroke-linecap="round" stroke-linejoin="round"/>
<path d="M-164.656 70.4092L1224.07 -182.006" stroke="#E2EEDC" stroke-linecap="round" stroke-linejoin="round"/>
<path d="M-119.292 335.609L1269.44 83.1944" stroke="#E2EEDC" stroke-linecap="round" stroke-linejoin="round"/>
<path d="M-167.164 55.7534L1221.57 -196.662" stroke="#E2EEDC" stroke-linecap="round" stroke-linejoin="round"/>
<path d="M-121.799 320.954L1266.93 68.5386" stroke="#E2EEDC" stroke-linecap="round" stroke-linejoin="round"/>
<path d="M-169.671 41.0974L1219.06 -211.318" stroke="#E2EEDC" stroke-linecap="round" stroke-linejoin="round"/>
<path d="M-124.306 306.298L1264.42 53.8829" stroke="#E2EEDC" stroke-linecap="round" stroke-linejoin="round"/>
<path d="M-172.177 26.4417L1216.55 -225.973" stroke="#E2EEDC" stroke-linecap="round" stroke-linejoin="round"/>
<path d="M-129.32 290.416L1259.41 38.001" stroke="#E2EEDC" stroke-linecap="round" stroke-linejoin="round"/>
<path d="M-174.684 11.7859L1214.05 -240.629" stroke="#E2EEDC" stroke-linecap="round" stroke-linejoin="round"/>
<path d="M-129.32 276.986L1259.41 24.5713" stroke="#E2EEDC" stroke-linecap="round" stroke-linejoin="round"/>
<path d="M-131.827 262.33L1256.9 9.91508" stroke="#E2EEDC" stroke-linecap="round" stroke-linejoin="round"/>
<path d="M-134.334 247.675L1254.4 -4.74019" stroke="#E2EEDC" stroke-linecap="round" stroke-linejoin="round"/>
<path d="M-136.841 233.019L1251.89 -19.3964" stroke="#E2EEDC" stroke-linecap="round" stroke-linejoin="round"/>
<path d="M-139.348 218.363L1249.38 -34.0522" stroke="#E2EEDC" stroke-linecap="round" stroke-linejoin="round"/>
<path d="M-141.854 203.707L1246.88 -48.708" stroke="#E2EEDC" stroke-linecap="round" stroke-linejoin="round"/>
<path d="M-144.362 189.051L1244.37 -63.3637" stroke="#E2EEDC" stroke-linecap="round" stroke-linejoin="round"/>
<path d="M-146.869 174.396L1241.86 -78.0195" stroke="#E2EEDC" stroke-linecap="round" stroke-linejoin="round"/>
<path d="M-149.376 159.74L1239.35 -92.6752" stroke="#E2EEDC" stroke-linecap="round" stroke-linejoin="round"/>
<path d="M-151.883 145.084L1236.85 -107.331" stroke="#E2EEDC" stroke-linecap="round" stroke-linejoin="round"/>
<path d="M-154.39 130.428L1234.34 -121.987" stroke="#E2EEDC" stroke-linecap="round" stroke-linejoin="round"/>
<path d="M-156.897 115.772L1231.83 -136.643" stroke="#E2EEDC" stroke-linecap="round" stroke-linejoin="round"/>
<path d="M-159.403 101.117L1229.33 -151.298" stroke="#E2EEDC" stroke-linecap="round" stroke-linejoin="round"/>
<path d="M-162.029 85.7627L1226.7 -166.652" stroke="#E2EEDC" stroke-linecap="round" stroke-linejoin="round"/>
</g>

<g clip-path="url(#clip1_18562_12280)">
<path d="M12.6498 100.026C38.2719 100.026 59.0423 79.472 59.0423 54.117C59.0423 28.7619 38.2719 8.20759 12.6498 8.20759C-12.9723 8.20759 -33.7432 28.7619 -33.7432 54.117C-33.7432 79.472 -12.9723 100.026 12.6498 100.026Z" fill="#FCC084"/>
<path d="M-83.5898 147.117L19.6018 -55.4081" stroke="white" stroke-width="1.00962" stroke-linecap="round" stroke-linejoin="round"/>
<path d="M-76.8965 150.528L26.2952 -51.9974" stroke="white" stroke-width="1.00962" stroke-linecap="round" stroke-linejoin="round"/>
<path d="M-70.2031 153.938L32.9885 -48.587" stroke="white" stroke-width="1.00962" stroke-linecap="round" stroke-linejoin="round"/>
<path d="M-63.5088 157.349L39.6828 -45.1764" stroke="white" stroke-width="1.00962" stroke-linecap="round" stroke-linejoin="round"/>
<path d="M-56.8154 160.759L46.3762 -41.7657" stroke="white" stroke-width="1.00962" stroke-linecap="round" stroke-linejoin="round"/>
<path d="M-49.998 164.233L53.1936 -38.2923" stroke="white" stroke-width="1.00962" stroke-linecap="round" stroke-linejoin="round"/>
<path d="M-43.3057 167.643L59.886 -34.8817" stroke="white" stroke-width="1.00962" stroke-linecap="round" stroke-linejoin="round"/>
<path d="M-36.6113 171.054L66.5803 -31.4711" stroke="white" stroke-width="1.00962" stroke-linecap="round" stroke-linejoin="round"/>
<path d="M-29.918 174.465L73.2737 -28.0604" stroke="white" stroke-width="1.00962" stroke-linecap="round" stroke-linejoin="round"/>
<path d="M-23.2246 177.875L79.967 -24.6498" stroke="white" stroke-width="1.00962" stroke-linecap="round" stroke-linejoin="round"/>
<path d="M-16.5303 181.286L86.6614 -21.2394" stroke="white" stroke-width="1.00962" stroke-linecap="round" stroke-linejoin="round"/>
<path d="M-9.83691 184.696L93.3547 -17.8287" stroke="white" stroke-width="1.00962" stroke-linecap="round" stroke-linejoin="round"/>
</g>
<g clip-path="url(#clip2_18562_12280)">
<path d="M133.903 233.402C146.553 233.402 156.807 223.255 156.807 210.738C156.807 198.22 146.553 188.073 133.903 188.073C121.254 188.073 111 198.22 111 210.738C111 223.255 121.254 233.402 133.903 233.402Z" fill="#66BB90"/>
<path d="M86.3916 256.65L137.336 156.667" stroke="white" stroke-width="0.498432" stroke-linecap="round" stroke-linejoin="round"/>
<path d="M89.6963 258.334L140.64 158.351" stroke="white" stroke-width="0.498432" stroke-linecap="round" stroke-linejoin="round"/>
<path d="M93 260.018L143.944 160.034" stroke="white" stroke-width="0.498432" stroke-linecap="round" stroke-linejoin="round"/>
<path d="M96.3057 261.701L147.25 161.718" stroke="white" stroke-width="0.498432" stroke-linecap="round" stroke-linejoin="round"/>
<path d="M99.6094 263.385L150.553 163.402" stroke="white" stroke-width="0.498432" stroke-linecap="round" stroke-linejoin="round"/>
<path d="M102.976 265.1L153.92 165.116" stroke="white" stroke-width="0.498432" stroke-linecap="round" stroke-linejoin="round"/>
<path d="M106.279 266.784L157.223 166.801" stroke="white" stroke-width="0.498432" stroke-linecap="round" stroke-linejoin="round"/>
<path d="M109.584 268.467L160.528 168.484" stroke="white" stroke-width="0.498432" stroke-linecap="round" stroke-linejoin="round"/>
<path d="M112.889 270.151L163.833 170.168" stroke="white" stroke-width="0.498432" stroke-linecap="round" stroke-linejoin="round"/>
<path d="M116.192 271.835L167.136 171.852" stroke="white" stroke-width="0.498432" stroke-linecap="round" stroke-linejoin="round"/>
<path d="M119.498 273.519L170.442 173.535" stroke="white" stroke-width="0.498432" stroke-linecap="round" stroke-linejoin="round"/>
<path d="M122.802 275.202L173.746 175.219" stroke="white" stroke-width="0.498432" stroke-linecap="round" stroke-linejoin="round"/>
</g>
<path d="M295.92 92.8807L283.342 101.357L298.256 103.769L295.92 92.8807Z" fill="#8767AA" stroke="#8767AA" stroke-width="3.69663" stroke-linecap="round" stroke-linejoin="round"/>
<mask id="mask0_18562_12280" style="mask-type:alpha" maskUnits="userSpaceOnUse" x="281" y="91" width="20" height="15">
<path d="M295.92 92.8807L283.342 101.357L298.256 103.769L295.92 92.8807Z" fill="#FBC586" stroke="#FBC586" stroke-width="3.69663" stroke-linecap="round" stroke-linejoin="round"/>
</mask>
<g mask="url(#mask0_18562_12280)">
<path d="M230.391 168.022L414.622 -0.483422" stroke="white" stroke-width="1.10899" stroke-linecap="round" stroke-linejoin="round"/>
<path d="M224.821 161.933L409.053 -6.57253" stroke="white" stroke-width="1.10899" stroke-linecap="round" stroke-linejoin="round"/>
<path d="M219.252 155.844L403.483 -12.6616" stroke="white" stroke-width="1.10899" stroke-linecap="round" stroke-linejoin="round"/>
<path d="M233.309 171.211L417.54 2.70603" stroke="white" stroke-width="1.10899" stroke-linecap="round" stroke-linejoin="round"/>
<path d="M227.739 165.122L411.971 -3.38308" stroke="white" stroke-width="1.10899" stroke-linecap="round" stroke-linejoin="round"/>
<path d="M222.17 159.033L406.401 -9.47219" stroke="white" stroke-width="1.10899" stroke-linecap="round" stroke-linejoin="round"/>
</g>
<path d="M280.249 81.3312L279.272 96.4669L290.295 86.1359L280.249 81.3312Z" fill="#8767AA" stroke="#8767AA" stroke-width="3.69662" stroke-linecap="round" stroke-linejoin="round"/>
<mask id="mask1_18562_12280" style="mask-type:alpha" maskUnits="userSpaceOnUse" x="277" y="79" width="16" height="20">
<path d="M280.249 81.331L279.272 96.4667L290.295 86.1357L280.249 81.331Z" fill="#FBC586" stroke="#FBC586" stroke-width="3.69662" stroke-linecap="round" stroke-linejoin="round"/>
</mask>
<g mask="url(#mask1_18562_12280)">
<path d="M299.682 179.12L278.885 -69.6827" stroke="white" stroke-width="1.10899" stroke-linecap="round" stroke-linejoin="round"/>
<path d="M291.458 179.807L270.662 -68.9954" stroke="white" stroke-width="1.10899" stroke-linecap="round" stroke-linejoin="round"/>
<path d="M283.235 180.494L262.439 -68.3082" stroke="white" stroke-width="1.10899" stroke-linecap="round" stroke-linejoin="round"/>
<path d="M303.989 178.76L283.193 -70.043" stroke="white" stroke-width="1.10899" stroke-linecap="round" stroke-linejoin="round"/>
<path d="M295.766 179.447L274.969 -69.3558" stroke="white" stroke-width="1.10899" stroke-linecap="round" stroke-linejoin="round"/>
<path d="M287.543 180.134L266.747 -68.6685" stroke="white" stroke-width="1.10899" stroke-linecap="round" stroke-linejoin="round"/>
</g>
<g clip-path="url(#clip3_18562_12280)">
<path d="M344.622 263.942C366.37 263.942 384 246.496 384 224.975C384 203.454 366.37 186.007 344.622 186.007C322.874 186.007 305.244 203.454 305.244 224.975C305.244 246.496 322.874 263.942 344.622 263.942Z" fill="#4D91BA"/>
<path d="M262.935 303.912L350.523 132.01" stroke="white" stroke-width="0.856957" stroke-linecap="round" stroke-linejoin="round"/>
<path d="M268.616 306.807L356.204 134.905" stroke="white" stroke-width="0.856957" stroke-linecap="round" stroke-linejoin="round"/>
<path d="M274.298 309.702L361.886 137.8" stroke="white" stroke-width="0.856957" stroke-linecap="round" stroke-linejoin="round"/>
<path d="M279.979 312.597L367.567 140.695" stroke="white" stroke-width="0.856957" stroke-linecap="round" stroke-linejoin="round"/>
<path d="M285.66 315.492L373.248 143.59" stroke="white" stroke-width="0.856957" stroke-linecap="round" stroke-linejoin="round"/>
<path d="M291.446 318.44L379.035 146.538" stroke="white" stroke-width="0.856957" stroke-linecap="round" stroke-linejoin="round"/>
<path d="M297.128 321.335L384.716 149.433" stroke="white" stroke-width="0.856957" stroke-linecap="round" stroke-linejoin="round"/>
<path d="M302.81 324.23L390.398 152.328" stroke="white" stroke-width="0.856957" stroke-linecap="round" stroke-linejoin="round"/>
<path d="M308.491 327.125L396.079 155.223" stroke="white" stroke-width="0.856957" stroke-linecap="round" stroke-linejoin="round"/>
<path d="M314.173 330.02L401.761 158.118" stroke="white" stroke-width="0.856957" stroke-linecap="round" stroke-linejoin="round"/>
<path d="M319.854 332.915L407.443 161.013" stroke="white" stroke-width="0.856957" stroke-linecap="round" stroke-linejoin="round"/>
<path d="M325.536 335.81L413.124 163.908" stroke="white" stroke-width="0.856957" stroke-linecap="round" stroke-linejoin="round"/>
</g>
</g>
<defs>
<clipPath id="clip0_18562_12280">
<rect width="344" height="240" rx="16" fill="white"/>
</clipPath>
<clipPath id="clip1_18562_12280">
<rect x="-33.7432" y="8.20752" width="92.7855" height="91.8188" rx="45.9094" fill="white"/>
</clipPath>
<clipPath id="clip2_18562_12280">
<rect x="111" y="188.073" width="45.8066" height="45.3294" rx="22.6647" fill="white"/>
</clipPath>
<clipPath id="clip3_18562_12280">
<rect x="305.244" y="186.007" width="78.7556" height="77.9351" rx="38.9675" fill="white"/>
</clipPath>
</defs>
</svg>