<svg width="28" height="28" viewBox="0 0 28 28" fill="none" xmlns="http://www.w3.org/2000/svg">
<path d="M10.4985 24.5044H6.99706C5.06326 24.5044 3.49561 22.9367 3.49561 21.0029V6.99706C3.49561 5.06326 5.06326 3.49561 6.99706 3.49561H21.0029C22.9367 3.49561 24.5044 5.06326 24.5044 6.99706V10.4985" stroke="#8E8E8E" stroke-width="1.5" stroke-linecap="round" stroke-linejoin="round"/>
<path fill-rule="evenodd" clip-rule="evenodd" d="M17.177 24.1624C16.9582 24.3813 16.6613 24.5044 16.3518 24.5044H14V22.1525C14 21.843 14.1231 21.5462 14.342 21.3274L21.2562 14.4073C21.6329 14.0306 22.1438 13.8189 22.6766 13.8189C23.2094 13.8189 23.7203 14.0306 24.097 14.4073V14.4073C24.4741 14.7839 24.6859 15.2949 24.6859 15.8277C24.6859 16.3606 24.4741 16.8716 24.097 17.2482L17.177 24.1624Z" stroke="#8E8E8E" stroke-width="1.5" stroke-linecap="round" stroke-linejoin="round"/>
<path d="M18.6814 16.9902L21.5176 19.8264" stroke="#8E8E8E" stroke-width="1.5" stroke-linecap="round" stroke-linejoin="round"/>
<path d="M23.5298 17.8142L24.5802 18.8647V18.8647C25.1332 19.4187 25.1332 20.3158 24.5802 20.8698L23.3092 22.142" stroke="#8E8E8E" stroke-width="1.5" stroke-linecap="round" stroke-linejoin="round"/>
<path d="M10.7903 12.8328H16.3343" stroke="#8E8E8E" stroke-width="1.5" stroke-linecap="round" stroke-linejoin="round"/>
<path d="M10.7903 8.31011H18.6686" stroke="#8E8E8E" stroke-width="1.5" stroke-linecap="round" stroke-linejoin="round"/>
<path d="M7.1429 12.9787C7.22348 12.9787 7.2888 12.9134 7.2888 12.8328C7.2888 12.7522 7.22348 12.6869 7.1429 12.6869C7.06233 12.6869 6.99701 12.7522 6.99701 12.8328C6.99701 12.9134 7.06233 12.9787 7.1429 12.9787" stroke="#8E8E8E" stroke-width="1.5" stroke-linecap="round" stroke-linejoin="round"/>
<path d="M7.1429 8.456C7.22348 8.456 7.2888 8.39068 7.2888 8.31011C7.2888 8.22953 7.22348 8.16421 7.1429 8.16421C7.06233 8.16421 6.99701 8.22953 6.99701 8.31011C6.99701 8.39068 7.06233 8.456 7.1429 8.456" stroke="#8E8E8E" stroke-width="1.5" stroke-linecap="round" stroke-linejoin="round"/>
<path d="M10.7903 17.3555H12.8328" stroke="#8E8E8E" stroke-width="1.5" stroke-linecap="round" stroke-linejoin="round"/>
<path d="M7.1429 17.5014C7.22348 17.5014 7.2888 17.4361 7.2888 17.3555C7.2888 17.275 7.22348 17.2097 7.1429 17.2097C7.06233 17.2097 6.99701 17.275 6.99701 17.3555C6.99701 17.4361 7.06233 17.5014 7.1429 17.5014" stroke="#8E8E8E" stroke-width="1.5" stroke-linecap="round" stroke-linejoin="round"/>
</svg>
