<svg xmlns="http://www.w3.org/2000/svg" width="392" height="240" viewBox="0 0 392 240" fill="none">
<g clip-path="url(#clip0_18562_7272)">
<rect width="392" height="240" rx="16" fill="#4D91BA"/>
<g opacity="0.2">
<path d="M-244.193 511.206L1471.87 237.488" stroke="#E2EEDC" stroke-linecap="round" stroke-linejoin="round"/>
<path d="M-247.05 496.55L1469.01 222.832" stroke="#E2EEDC" stroke-linecap="round" stroke-linejoin="round"/>
<path d="M-249.906 481.894L1466.16 208.176" stroke="#E2EEDC" stroke-linecap="round" stroke-linejoin="round"/>
<path d="M-252.764 467.238L1463.3 193.52" stroke="#E2EEDC" stroke-linecap="round" stroke-linejoin="round"/>
<path d="M-255.62 452.583L1460.44 178.865" stroke="#E2EEDC" stroke-linecap="round" stroke-linejoin="round"/>
<path d="M-258.477 437.927L1457.59 164.209" stroke="#E2EEDC" stroke-linecap="round" stroke-linejoin="round"/>
<path d="M-261.335 423.271L1454.73 149.553" stroke="#E2EEDC" stroke-linecap="round" stroke-linejoin="round"/>
<path d="M-264.191 408.615L1451.87 134.897" stroke="#E2EEDC" stroke-linecap="round" stroke-linejoin="round"/>
<path d="M-267.048 393.959L1449.02 120.241" stroke="#E2EEDC" stroke-linecap="round" stroke-linejoin="round"/>
<path d="M-269.854 379.559L1446.21 105.841" stroke="#E2EEDC" stroke-linecap="round" stroke-linejoin="round"/>
<path d="M-324.405 99.7031L1391.66 -174.015" stroke="#E2EEDC" stroke-linecap="round" stroke-linejoin="round"/>
<path d="M-272.711 364.903L1443.35 91.1853" stroke="#E2EEDC" stroke-linecap="round" stroke-linejoin="round"/>
<path d="M-327.263 85.0474L1388.8 -188.671" stroke="#E2EEDC" stroke-linecap="round" stroke-linejoin="round"/>
<path d="M-275.567 350.248L1440.5 76.5296" stroke="#E2EEDC" stroke-linecap="round" stroke-linejoin="round"/>
<path d="M-330.119 70.3916L1385.95 -203.326" stroke="#E2EEDC" stroke-linecap="round" stroke-linejoin="round"/>
<path d="M-278.425 335.592L1437.64 61.8738" stroke="#E2EEDC" stroke-linecap="round" stroke-linejoin="round"/>
<path d="M-332.976 55.7358L1383.09 -217.982" stroke="#E2EEDC" stroke-linecap="round" stroke-linejoin="round"/>
<path d="M-281.282 320.936L1434.78 47.218" stroke="#E2EEDC" stroke-linecap="round" stroke-linejoin="round"/>
<path d="M-335.832 41.0801L1380.23 -232.638" stroke="#E2EEDC" stroke-linecap="round" stroke-linejoin="round"/>
<path d="M-284.139 306.28L1431.93 32.5623" stroke="#E2EEDC" stroke-linecap="round" stroke-linejoin="round"/>
<path d="M-338.689 26.4241L1377.38 -247.294" stroke="#E2EEDC" stroke-linecap="round" stroke-linejoin="round"/>
<path d="M-286.995 291.625L1429.07 17.9065" stroke="#E2EEDC" stroke-linecap="round" stroke-linejoin="round"/>
<path d="M-341.546 11.7683L1374.52 -261.95" stroke="#E2EEDC" stroke-linecap="round" stroke-linejoin="round"/>
<path d="M-289.853 276.969L1426.21 3.25076" stroke="#E2EEDC" stroke-linecap="round" stroke-linejoin="round"/>
<path d="M-292.709 262.313L1423.36 -11.405" stroke="#E2EEDC" stroke-linecap="round" stroke-linejoin="round"/>
<path d="M-295.565 247.657L1420.5 -26.0608" stroke="#E2EEDC" stroke-linecap="round" stroke-linejoin="round"/>
<path d="M-298.422 233.001L1417.64 -40.717" stroke="#E2EEDC" stroke-linecap="round" stroke-linejoin="round"/>
<path d="M-301.279 218.346L1414.79 -55.3723" stroke="#E2EEDC" stroke-linecap="round" stroke-linejoin="round"/>
<path d="M-304.136 203.689L1411.93 -70.0285" stroke="#E2EEDC" stroke-linecap="round" stroke-linejoin="round"/>
<path d="M-306.993 189.034L1409.07 -84.6843" stroke="#E2EEDC" stroke-linecap="round" stroke-linejoin="round"/>
<path d="M-309.85 174.378L1406.22 -99.3401" stroke="#E2EEDC" stroke-linecap="round" stroke-linejoin="round"/>
<path d="M-312.707 159.722L1403.36 -113.996" stroke="#E2EEDC" stroke-linecap="round" stroke-linejoin="round"/>
<path d="M-315.563 145.066L1400.5 -128.652" stroke="#E2EEDC" stroke-linecap="round" stroke-linejoin="round"/>
<path d="M-318.42 130.411L1397.64 -143.307" stroke="#E2EEDC" stroke-linecap="round" stroke-linejoin="round"/>
<path d="M-321.412 115.057L1394.65 -158.661" stroke="#E2EEDC" stroke-linecap="round" stroke-linejoin="round"/>
<path d="M-107.42 481.912L1475.09 229.497" stroke="#E2EEDC" stroke-linecap="round" stroke-linejoin="round"/>
<path d="M-110.276 467.256L1472.23 214.841" stroke="#E2EEDC" stroke-linecap="round" stroke-linejoin="round"/>
<path d="M-113.134 452.6L1469.37 200.185" stroke="#E2EEDC" stroke-linecap="round" stroke-linejoin="round"/>
<path d="M-115.99 437.944L1466.52 185.529" stroke="#E2EEDC" stroke-linecap="round" stroke-linejoin="round"/>
<path d="M-118.847 423.288L1463.66 170.873" stroke="#E2EEDC" stroke-linecap="round" stroke-linejoin="round"/>
<path d="M-121.703 408.632L1460.8 156.217" stroke="#E2EEDC" stroke-linecap="round" stroke-linejoin="round"/>
<path d="M-124.561 393.977L1457.95 141.562" stroke="#E2EEDC" stroke-linecap="round" stroke-linejoin="round"/>
<path d="M-127.418 379.321L1455.09 126.906" stroke="#E2EEDC" stroke-linecap="round" stroke-linejoin="round"/>
<path d="M-130.274 364.665L1452.23 112.25" stroke="#E2EEDC" stroke-linecap="round" stroke-linejoin="round"/>
<path d="M-133.081 350.265L1449.43 97.8501" stroke="#E2EEDC" stroke-linecap="round" stroke-linejoin="round"/>
<path d="M-187.632 70.4092L1394.87 -182.006" stroke="#E2EEDC" stroke-linecap="round" stroke-linejoin="round"/>
<path d="M-135.938 335.609L1446.57 83.1944" stroke="#E2EEDC" stroke-linecap="round" stroke-linejoin="round"/>
<path d="M-190.489 55.7534L1392.02 -196.662" stroke="#E2EEDC" stroke-linecap="round" stroke-linejoin="round"/>
<path d="M-138.794 320.954L1443.71 68.5386" stroke="#E2EEDC" stroke-linecap="round" stroke-linejoin="round"/>
<path d="M-193.346 41.0974L1389.16 -211.318" stroke="#E2EEDC" stroke-linecap="round" stroke-linejoin="round"/>
<path d="M-141.651 306.298L1440.86 53.8829" stroke="#E2EEDC" stroke-linecap="round" stroke-linejoin="round"/>
<path d="M-196.202 26.4417L1386.3 -225.973" stroke="#E2EEDC" stroke-linecap="round" stroke-linejoin="round"/>
<path d="M-144.509 291.642L1438 39.2271" stroke="#E2EEDC" stroke-linecap="round" stroke-linejoin="round"/>
<path d="M-199.059 11.7859L1383.45 -240.629" stroke="#E2EEDC" stroke-linecap="round" stroke-linejoin="round"/>
<path d="M-147.365 276.986L1435.14 24.5713" stroke="#E2EEDC" stroke-linecap="round" stroke-linejoin="round"/>
<path d="M-150.222 262.33L1432.29 9.91508" stroke="#E2EEDC" stroke-linecap="round" stroke-linejoin="round"/>
<path d="M-153.079 247.675L1429.43 -4.74019" stroke="#E2EEDC" stroke-linecap="round" stroke-linejoin="round"/>
<path d="M-155.936 233.019L1426.57 -19.3964" stroke="#E2EEDC" stroke-linecap="round" stroke-linejoin="round"/>
<path d="M-158.792 218.363L1423.71 -34.0522" stroke="#E2EEDC" stroke-linecap="round" stroke-linejoin="round"/>
<path d="M-161.648 203.707L1420.86 -48.708" stroke="#E2EEDC" stroke-linecap="round" stroke-linejoin="round"/>
<path d="M-164.506 189.051L1418 -63.3637" stroke="#E2EEDC" stroke-linecap="round" stroke-linejoin="round"/>
<path d="M-167.362 174.396L1415.14 -78.0195" stroke="#E2EEDC" stroke-linecap="round" stroke-linejoin="round"/>
<path d="M-170.22 159.74L1412.29 -92.6752" stroke="#E2EEDC" stroke-linecap="round" stroke-linejoin="round"/>
<path d="M-173.076 145.084L1409.43 -107.331" stroke="#E2EEDC" stroke-linecap="round" stroke-linejoin="round"/>
<path d="M-175.933 130.428L1406.57 -121.987" stroke="#E2EEDC" stroke-linecap="round" stroke-linejoin="round"/>
<path d="M-178.79 115.772L1403.72 -136.643" stroke="#E2EEDC" stroke-linecap="round" stroke-linejoin="round"/>
<path d="M-181.646 101.117L1400.86 -151.298" stroke="#E2EEDC" stroke-linecap="round" stroke-linejoin="round"/>
<path d="M-184.639 85.7627L1397.87 -166.652" stroke="#E2EEDC" stroke-linecap="round" stroke-linejoin="round"/>
</g>

<g clip-path="url(#clip1_18562_7272)">
<path d="M12.6498 100.026C38.2719 100.026 59.0423 79.472 59.0423 54.117C59.0423 28.7619 38.2719 8.20759 12.6498 8.20759C-12.9723 8.20759 -33.7432 28.7619 -33.7432 54.117C-33.7432 79.472 -12.9723 100.026 12.6498 100.026Z" fill="#FCC084"/>
<path d="M-83.5898 147.117L19.6018 -55.4081" stroke="white" stroke-width="1.00962" stroke-linecap="round" stroke-linejoin="round"/>
<path d="M-76.8965 150.528L26.2952 -51.9974" stroke="white" stroke-width="1.00962" stroke-linecap="round" stroke-linejoin="round"/>
<path d="M-70.2031 153.938L32.9885 -48.587" stroke="white" stroke-width="1.00962" stroke-linecap="round" stroke-linejoin="round"/>
<path d="M-63.5088 157.349L39.6828 -45.1764" stroke="white" stroke-width="1.00962" stroke-linecap="round" stroke-linejoin="round"/>
<path d="M-56.8154 160.759L46.3762 -41.7657" stroke="white" stroke-width="1.00962" stroke-linecap="round" stroke-linejoin="round"/>
<path d="M-49.998 164.233L53.1936 -38.2923" stroke="white" stroke-width="1.00962" stroke-linecap="round" stroke-linejoin="round"/>
<path d="M-43.3057 167.643L59.886 -34.8817" stroke="white" stroke-width="1.00962" stroke-linecap="round" stroke-linejoin="round"/>
<path d="M-36.6113 171.054L66.5803 -31.4713" stroke="white" stroke-width="1.00962" stroke-linecap="round" stroke-linejoin="round"/>
<path d="M-29.918 174.465L73.2737 -28.0604" stroke="white" stroke-width="1.00962" stroke-linecap="round" stroke-linejoin="round"/>
<path d="M-23.2246 177.875L79.967 -24.65" stroke="white" stroke-width="1.00962" stroke-linecap="round" stroke-linejoin="round"/>
<path d="M-16.5303 181.286L86.6614 -21.2394" stroke="white" stroke-width="1.00962" stroke-linecap="round" stroke-linejoin="round"/>
<path d="M-9.83691 184.696L93.3547 -17.8287" stroke="white" stroke-width="1.00962" stroke-linecap="round" stroke-linejoin="round"/>
</g>
<g clip-path="url(#clip2_18562_7272)">
<path d="M133.903 233.402C146.553 233.402 156.807 223.255 156.807 210.737C156.807 198.22 146.553 188.073 133.903 188.073C121.254 188.073 111 198.22 111 210.737C111 223.255 121.254 233.402 133.903 233.402Z" fill="#66BB90"/>
<path d="M86.3916 256.65L137.336 156.667" stroke="white" stroke-width="0.498432" stroke-linecap="round" stroke-linejoin="round"/>
<path d="M89.6963 258.334L140.64 158.351" stroke="white" stroke-width="0.498432" stroke-linecap="round" stroke-linejoin="round"/>
<path d="M93 260.018L143.944 160.034" stroke="white" stroke-width="0.498432" stroke-linecap="round" stroke-linejoin="round"/>
<path d="M96.3057 261.701L147.25 161.718" stroke="white" stroke-width="0.498432" stroke-linecap="round" stroke-linejoin="round"/>
<path d="M99.6094 263.385L150.553 163.402" stroke="white" stroke-width="0.498432" stroke-linecap="round" stroke-linejoin="round"/>
<path d="M102.976 265.1L153.92 165.117" stroke="white" stroke-width="0.498432" stroke-linecap="round" stroke-linejoin="round"/>
<path d="M106.279 266.783L157.223 166.8" stroke="white" stroke-width="0.498432" stroke-linecap="round" stroke-linejoin="round"/>
<path d="M109.584 268.467L160.528 168.484" stroke="white" stroke-width="0.498432" stroke-linecap="round" stroke-linejoin="round"/>
<path d="M112.889 270.151L163.833 170.168" stroke="white" stroke-width="0.498432" stroke-linecap="round" stroke-linejoin="round"/>
<path d="M116.192 271.835L167.136 171.852" stroke="white" stroke-width="0.498432" stroke-linecap="round" stroke-linejoin="round"/>
<path d="M119.498 273.519L170.442 173.535" stroke="white" stroke-width="0.498432" stroke-linecap="round" stroke-linejoin="round"/>
<path d="M122.802 275.202L173.746 175.219" stroke="white" stroke-width="0.498432" stroke-linecap="round" stroke-linejoin="round"/>
</g>
<path d="M343.92 76.8809L331.342 85.3569L346.256 87.769L343.92 76.8809Z" fill="#EB7966" stroke="#EB7966" stroke-width="3.69663" stroke-linecap="round" stroke-linejoin="round"/>
<mask id="mask0_18562_7272" style="mask-type:alpha" maskUnits="userSpaceOnUse" x="329" y="75" width="20" height="15">
<path d="M343.92 76.8809L331.342 85.3569L346.256 87.769L343.92 76.8809Z" fill="#FBC586" stroke="#FBC586" stroke-width="3.69663" stroke-linecap="round" stroke-linejoin="round"/>
</mask>
<g mask="url(#mask0_18562_7272)">
<path d="M278.391 152.022L462.622 -16.4832" stroke="white" stroke-width="1.10899" stroke-linecap="round" stroke-linejoin="round"/>
<path d="M272.821 145.933L457.053 -22.5723" stroke="white" stroke-width="1.10899" stroke-linecap="round" stroke-linejoin="round"/>
<path d="M267.252 139.844L451.483 -28.6614" stroke="white" stroke-width="1.10899" stroke-linecap="round" stroke-linejoin="round"/>
<path d="M281.309 155.211L465.54 -13.2937" stroke="white" stroke-width="1.10899" stroke-linecap="round" stroke-linejoin="round"/>
<path d="M275.739 149.123L459.971 -19.3826" stroke="white" stroke-width="1.10899" stroke-linecap="round" stroke-linejoin="round"/>
<path d="M270.17 143.033L454.401 -25.4719" stroke="white" stroke-width="1.10899" stroke-linecap="round" stroke-linejoin="round"/>
</g>
<path d="M328.249 65.3317L327.272 80.4674L338.295 70.1364L328.249 65.3317Z" fill="#EB7966" stroke="#EB7966" stroke-width="3.69662" stroke-linecap="round" stroke-linejoin="round"/>
<mask id="mask1_18562_7272" style="mask-type:alpha" maskUnits="userSpaceOnUse" x="325" y="63" width="16" height="20">
<path d="M328.249 65.3315L327.272 80.4672L338.295 70.1361L328.249 65.3315Z" fill="#FBC586" stroke="#FBC586" stroke-width="3.69662" stroke-linecap="round" stroke-linejoin="round"/>
</mask>
<g mask="url(#mask1_18562_7272)">
<path d="M347.682 163.12L326.885 -85.6822" stroke="white" stroke-width="1.10899" stroke-linecap="round" stroke-linejoin="round"/>
<path d="M339.458 163.808L318.662 -84.9949" stroke="white" stroke-width="1.10899" stroke-linecap="round" stroke-linejoin="round"/>
<path d="M331.235 164.495L310.439 -84.3077" stroke="white" stroke-width="1.10899" stroke-linecap="round" stroke-linejoin="round"/>
<path d="M351.989 162.76L331.193 -86.0426" stroke="white" stroke-width="1.10899" stroke-linecap="round" stroke-linejoin="round"/>
<path d="M343.766 163.447L322.969 -85.3553" stroke="white" stroke-width="1.10899" stroke-linecap="round" stroke-linejoin="round"/>
<path d="M335.543 164.135L314.747 -84.668" stroke="white" stroke-width="1.10899" stroke-linecap="round" stroke-linejoin="round"/>
</g>
<g clip-path="url(#clip3_18562_7272)">
<path d="M344.622 263.942C366.37 263.942 384 246.496 384 224.974C384 203.453 366.37 186.007 344.622 186.007C322.874 186.007 305.244 203.453 305.244 224.974C305.244 246.496 322.874 263.942 344.622 263.942Z" fill="#8767AA"/>
<path d="M262.935 303.912L350.523 132.01" stroke="white" stroke-width="0.856957" stroke-linecap="round" stroke-linejoin="round"/>
<path d="M268.616 306.807L356.204 134.905" stroke="white" stroke-width="0.856957" stroke-linecap="round" stroke-linejoin="round"/>
<path d="M274.298 309.702L361.886 137.8" stroke="white" stroke-width="0.856957" stroke-linecap="round" stroke-linejoin="round"/>
<path d="M279.979 312.597L367.567 140.695" stroke="white" stroke-width="0.856957" stroke-linecap="round" stroke-linejoin="round"/>
<path d="M285.66 315.492L373.248 143.59" stroke="white" stroke-width="0.856957" stroke-linecap="round" stroke-linejoin="round"/>
<path d="M291.446 318.44L379.035 146.538" stroke="white" stroke-width="0.856957" stroke-linecap="round" stroke-linejoin="round"/>
<path d="M297.128 321.335L384.716 149.433" stroke="white" stroke-width="0.856957" stroke-linecap="round" stroke-linejoin="round"/>
<path d="M302.81 324.23L390.398 152.328" stroke="white" stroke-width="0.856957" stroke-linecap="round" stroke-linejoin="round"/>
<path d="M308.491 327.125L396.079 155.223" stroke="white" stroke-width="0.856957" stroke-linecap="round" stroke-linejoin="round"/>
<path d="M314.173 330.02L401.761 158.118" stroke="white" stroke-width="0.856957" stroke-linecap="round" stroke-linejoin="round"/>
<path d="M319.854 332.914L407.443 161.013" stroke="white" stroke-width="0.856957" stroke-linecap="round" stroke-linejoin="round"/>
<path d="M325.536 335.809L413.124 163.908" stroke="white" stroke-width="0.856957" stroke-linecap="round" stroke-linejoin="round"/>
</g>
</g>
<defs>
<clipPath id="clip0_18562_7272">
<rect width="392" height="240" rx="16" fill="white"/>
</clipPath>
<clipPath id="clip1_18562_7272">
<rect x="-33.7432" y="8.20752" width="92.7855" height="91.8188" rx="45.9094" fill="white"/>
</clipPath>
<clipPath id="clip2_18562_7272">
<rect x="111" y="188.073" width="45.8066" height="45.3294" rx="22.6647" fill="white"/>
</clipPath>
<clipPath id="clip3_18562_7272">
<rect x="305.244" y="186.007" width="78.7556" height="77.9351" rx="38.9675" fill="white"/>
</clipPath>
</defs>
</svg>