<svg width="28" height="28" viewBox="0 0 28 28" fill="none" xmlns="http://www.w3.org/2000/svg">
<path d="M9.33324 4.66687C14.4878 7.24417 20.7558 13.5121 23.3331 18.6668C25.9104 23.8214 23.8211 25.9107 18.6665 23.3334C13.5119 20.7561 7.24393 14.4881 4.66662 9.33349C2.08932 4.17888 4.17863 2.08956 9.33324 4.66687" stroke="#8E8E8E" stroke-width="1.74998" stroke-linecap="round" stroke-linejoin="round"/>
<path d="M18.6665 4.66661C23.8211 2.08931 25.9104 4.17863 23.3331 9.33323C20.7558 14.4878 14.4879 20.7558 9.33324 23.3331C4.17863 25.9104 2.08931 23.8211 4.66662 18.6665C7.24392 13.5119 13.5119 7.24392 18.6665 4.66661" stroke="#8E8E8E" stroke-width="1.74998" stroke-linecap="round" stroke-linejoin="round"/>
<path d="M14.4223 14C14.4223 14.2415 14.2333 14.4375 14 14.4375C13.7666 14.4375 13.5776 14.2415 13.5776 14C13.5776 13.7585 13.7666 13.5625 14 13.5625C14.2333 13.5625 14.4223 13.7585 14.4223 14" stroke="#8E8E8E" stroke-width="2.33333" stroke-linecap="round" stroke-linejoin="round"/>
</svg>
