<svg width="1216" height="603" viewBox="0 0 1216 603" fill="none" xmlns="http://www.w3.org/2000/svg">
<rect width="1216" height="603" fill="black" fill-opacity="0.1"/>
<g filter="url(#filter0_b_18201_11191)">
<path fill-rule="evenodd" clip-rule="evenodd" d="M608 342C630.091 342 648 324.091 648 302C648 279.909 630.091 262 608 262C585.909 262 568 279.909 568 302C568 324.091 585.909 342 608 342ZM601.75 316.672L624.25 304.096C625.917 303.164 625.917 300.836 624.25 299.904L601.75 287.328C600.083 286.396 598 287.561 598 289.424L598 314.576C598 316.439 600.083 317.604 601.75 316.672Z" fill="white" fill-opacity="0.3"/>
</g>
<defs>
<filter id="filter0_b_18201_11191" x="552" y="246" width="112" height="112" filterUnits="userSpaceOnUse" color-interpolation-filters="sRGB">
<feFlood flood-opacity="0" result="BackgroundImageFix"/>
<feGaussianBlur in="BackgroundImageFix" stdDeviation="8"/>
<feComposite in2="SourceAlpha" operator="in" result="effect1_backgroundBlur_18201_11191"/>
<feBlend mode="normal" in="SourceGraphic" in2="effect1_backgroundBlur_18201_11191" result="shape"/>
</filter>
</defs>
</svg>
