<svg width="28" height="28" viewBox="0 0 28 28" fill="none" xmlns="http://www.w3.org/2000/svg">
<path d="M22.1667 5.83331H23.3334C24.6225 5.83331 25.6667 6.87748 25.6667 8.16665V22.1666C25.6667 23.4558 24.6225 24.5 23.3334 24.5H4.66671C3.37754 24.5 2.33337 23.4558 2.33337 22.1666V8.16665C2.33337 6.87748 3.37754 5.83331 4.66671 5.83331H5.83337" stroke="#8E8E8E" stroke-width="1.5" stroke-linecap="round" stroke-linejoin="round"/>
<path fill-rule="evenodd" clip-rule="evenodd" d="M14 6.99997C14 5.0668 12.4332 3.49997 10.5 3.49997H7.00004C6.35604 3.49997 5.83337 4.02264 5.83337 4.66664V19.8333C5.83337 20.4773 6.35604 21 7.00004 21H10.5C12.4332 21 14 22.5668 14 24.5C14 22.5668 15.5669 21 17.5 21H21C21.644 21 22.1667 20.4773 22.1667 19.8333V4.66664C22.1667 4.02264 21.644 3.49997 21 3.49997H17.5C15.5669 3.49997 14 5.0668 14 6.99997Z" stroke="#8E8E8E" stroke-width="1.5" stroke-linecap="round" stroke-linejoin="round"/>
<path d="M14.0001 6.99997V24.5" stroke="#8E8E8E" stroke-width="1.5" stroke-linecap="round" stroke-linejoin="round"/>
</svg>
