<svg width="28" height="28" viewBox="0 0 28 28" fill="none" xmlns="http://www.w3.org/2000/svg">
<path d="M5.54163 11.669H8.92146C10.1873 11.669 11.2128 10.6435 11.2128 9.3777V9.3777C11.2128 8.76987 10.9713 8.18653 10.542 7.7572L8.55396 5.7692" stroke="#8E8E8E" stroke-width="1.5" stroke-linecap="round" stroke-linejoin="round"/>
<path d="M17.9305 16.8852L16.4908 14.7257C16.2306 14.3349 15.792 14.1004 15.3218 14.1004V14.1004C14.7898 14.1004 14.3033 13.7994 14.0653 13.3234L13.958 13.1075C13.7596 12.712 13.7596 12.2465 13.958 11.851L14.8761 10.0159C15.1141 9.53986 15.6006 9.23886 16.1326 9.23886H19.7038" stroke="#8E8E8E" stroke-width="1.5" stroke-linecap="round" stroke-linejoin="round"/>
<path d="M16.3333 25.6667H9.33325" stroke="#8E8E8E" stroke-width="1.5" stroke-linecap="round" stroke-linejoin="round"/>
<path d="M4.66663 19.8333L5.40863 19.0913C9.50829 23.191 16.1583 23.1922 20.258 19.0913C24.3576 14.9917 24.3576 8.34167 20.258 4.242C19.8601 3.84417 19.432 3.4965 18.991 3.17567L19.8333 2.33334" stroke="#8E8E8E" stroke-width="1.5" stroke-linecap="round" stroke-linejoin="round"/>
<path d="M12.8333 22.1667V25.6667" stroke="#8E8E8E" stroke-width="1.5" stroke-linecap="round" stroke-linejoin="round"/>
<path d="M17.9893 6.51306C20.8369 9.36063 20.8369 13.9775 17.9893 16.825C15.1417 19.6726 10.5249 19.6726 7.67731 16.825C4.82973 13.9774 4.82973 9.36062 7.67731 6.51306C10.5249 3.66548 15.1417 3.66548 17.9893 6.51306" stroke="#8E8E8E" stroke-width="1.5" stroke-linecap="round" stroke-linejoin="round"/>
</svg>
