<svg width="28" height="28" viewBox="0 0 28 28" fill="none" xmlns="http://www.w3.org/2000/svg">
<path d="M17.5 17.7217H10.5" stroke="#8E8E8E" stroke-width="1.5" stroke-linecap="round" stroke-linejoin="round"/>
<path fill-rule="evenodd" clip-rule="evenodd" d="M9.96455 17.3787C7.89255 15.9145 6.65005 13.3584 7.08755 10.5444C7.56121 7.50285 10.0964 5.07502 13.1542 4.71685C17.3985 4.21868 21 7.52269 21 11.6667C21 14.0292 19.8264 16.114 18.0332 17.381C17.7112 17.6085 17.5 17.9609 17.5 18.3552V21.5834C17.5 23.1945 16.1945 24.5 14.5834 24.5H13.4167C11.8055 24.5 10.5 23.1945 10.5 21.5834V18.3599C10.5 17.962 10.2877 17.6074 9.96455 17.3787Z" stroke="#8E8E8E" stroke-width="1.5" stroke-linecap="round" stroke-linejoin="round"/>
<path d="M23.3334 5.83334L24.7217 4.44501" stroke="#8E8E8E" stroke-width="1.5" stroke-linecap="round" stroke-linejoin="round"/>
<path d="M4.66665 17.5L3.27832 18.8883" stroke="#8E8E8E" stroke-width="1.5" stroke-linecap="round" stroke-linejoin="round"/>
<path d="M5.83328 4.66667L4.44495 3.27834" stroke="#8E8E8E" stroke-width="1.5" stroke-linecap="round" stroke-linejoin="round"/>
<path d="M23.3334 17.5L24.7217 18.8883" stroke="#8E8E8E" stroke-width="1.5" stroke-linecap="round" stroke-linejoin="round"/>
<path d="M24.5 11.6667H26.4717" stroke="#8E8E8E" stroke-width="1.5" stroke-linecap="round" stroke-linejoin="round"/>
<path d="M1.52832 11.6667H3.49999" stroke="#8E8E8E" stroke-width="1.5" stroke-linecap="round" stroke-linejoin="round"/>
<path d="M10.5 21H17.3483" stroke="#8E8E8E" stroke-width="1.5" stroke-linecap="round" stroke-linejoin="round"/>
</svg>
